<svg version="1.2" xmlns="http://www.w3.org/2000/svg" viewBox="0 0 1024 512" width="1024" height="512">
	<title>Nouveau projet</title>
	<style>
		.s0 { fill: #ffffff } 
	</style>
	<path id="Utopie" class="s0" aria-label="Utopie"  d="m182.8 122.8v194c0 11.3-4.4 21.8-12.3 29.8-8 7.9-18.5 12.3-29.7 12.3-11.3 0-21.8-4.4-29.8-12.3-7.9-8-12.3-18.5-12.3-29.8v-194h-42.1v194c0 22.5 8.8 43.6 24.7 59.5 15.8 15.9 37 24.7 59.5 24.7 22.4 0 43.6-8.8 59.5-24.7 15.9-15.9 24.6-37 24.6-59.5v-194zm53.4 0v42.1h59.8v234.5h42.1v-234.5h59.6v-42.1zm314 23.2c-15.9-15.9-37-24.7-59.5-24.7-22.5 0-43.6 8.8-59.5 24.7-15.9 15.9-24.6 37-24.6 59.5v111.3c0 22.5 8.7 43.6 24.6 59.5 15.9 15.9 37.1 24.7 59.5 24.7 22.5 0 43.6-8.8 59.5-24.7 15.9-15.9 24.7-37 24.7-59.5v-111.3c0-22.5-8.8-43.6-24.7-59.5zm-17.4 170.8c0 11.3-4.4 21.8-12.3 29.8-8 7.9-18.5 12.3-29.8 12.3-11.2 0-21.7-4.4-29.7-12.3-7.9-8-12.3-18.5-12.3-29.8v-111.3c0-11.3 4.3-21.8 12.3-29.8 8-7.9 18.5-12.3 29.7-12.3 11.3 0 21.8 4.4 29.8 12.3 7.9 8 12.3 18.5 12.3 29.8zm206.6-177.3c-18.6-18.6-43.2-28.8-69.4-28.8-26.3 0-50.8 10.2-69.3 28.8l29.8 29.8c10.6-10.6 24.6-16.5 39.5-16.5 15 0 28.9 5.9 39.5 16.5 10.6 10.6 16.5 24.5 16.5 39.5 0 15-5.9 28.9-16.5 39.5-10.6 10.6-24.5 16.5-39.5 16.5h-28.2v-59.5h-42v195.7h42v-94.1h28.2c5.8 0 11.7-0.5 17.4-1.6 21.8-3.5 36.8-14.6 38.7-16l0.2-0.2c4.6-3.3 9-6.9 13-11 18.6-18.5 28.7-43 28.7-69.3 0-26.2-10.1-50.9-28.6-69.3zm89.3 261.4v-279.6h-42.1v279.6zm149.8-237.5v-42.1h-117.5v279.6h117.5v-42.1h-75.4v-76.7h59.3v-42.1h-59.3v-76.6z"/>
</svg>